<svg id="Layer_1" data-name="Layer 1" xmlns="http://www.w3.org/2000/svg" viewBox="0 0 138.49 21.7"><defs><style>.cls-1,.cls-2{fill:#77bca7;stroke:#77bca7;}.cls-1,.cls-2,.cls-3,.cls-4,.cls-5{stroke-miterlimit:10;}.cls-1{stroke-width:0.9px;}.cls-2{stroke-width:0.89px;}.cls-3,.cls-4,.cls-5{fill:none;stroke:#75bda7;}.cls-3{stroke-width:2.05px;}.cls-4{stroke-width:0.51px;}.cls-5{stroke-width:0.51px;}.cls-6{fill:#ea7c39;}</style></defs><title>coinapult</title><path class="cls-1" d="M8.85.8a8.69,8.69,0,0,1,4.4,1.1,5.38,5.38,0,0,1,2.5,3.2l-1.8.3A4.3,4.3,0,0,0,12.15,3a6.05,6.05,0,0,0-3.5-.9c-2.2,0-3.7.6-4.7,1.8a8.48,8.48,0,0,0-1.4,5.2,16.86,16.86,0,0,0,.2,2.5,6.64,6.64,0,0,0,.6,2A4,4,0,0,0,4.45,15a4.94,4.94,0,0,0,1.8.8,9,9,0,0,0,2.5.3c2.7,0,4.5-1,5.4-3.1l1.6.4a5.64,5.64,0,0,1-2.7,3,9.33,9.33,0,0,1-4.5,1,8.61,8.61,0,0,1-6.1-2c-1.3-1.3-2-3.4-2-6.4,0-2.8.7-4.9,2.1-6.2A9,9,0,0,1,8.85.8Z"/><path class="cls-2" d="M40.15,17.4h-1.9V.8h1.9Z"/><path class="cls-2" d="M44,17.4V.8h2.1l11.7,14.1V.9h1.7V17.5h-1.7l-12-14.6V17.5H44Z"/><path class="cls-2" d="M61.75,17.4,67.95.6h2.5l6.3,16.8h-1.9l-1.7-4.6h-7.8l-1.6,4.6Zm7.4-15.6a18.41,18.41,0,0,1-.6,1.8,16.71,16.71,0,0,1-.7,1.9l-2.2,6.1h7l-2.2-6.1C69.95,4.1,69.55,2.8,69.15,1.8Z"/><path class="cls-2" d="M78.95,17.4V.8h5.6c3.1,0,5.2.3,6.5,1a3.56,3.56,0,0,1,1.9,3.5,6,6,0,0,1-.3,2,3.32,3.32,0,0,1-1,1.4,3.8,3.8,0,0,1-1.8.9,17.17,17.17,0,0,1-2.6.5c-1,.1-2.1.1-3.5.1h-2.8v7.2ZM81,2.1V8.9h3.5A18.52,18.52,0,0,0,87,8.8q1-.15,1.8-.3a8.1,8.1,0,0,0,1.3-.6,3.59,3.59,0,0,0,.7-1A3.18,3.18,0,0,0,91,5.5a5.21,5.21,0,0,0-.2-1.4,3.59,3.59,0,0,0-.7-1,3.93,3.93,0,0,0-1.3-.6c-.6-.1-1.2-.2-1.9-.3a20.12,20.12,0,0,0-2.6-.1Z"/><path class="cls-2" d="M94.85,10.7V.8h2.1v9.6a9.72,9.72,0,0,0,.1,1.8,4.42,4.42,0,0,0,.5,1.5,2.73,2.73,0,0,0,.9,1.2,3.48,3.48,0,0,0,1.5.7,7.5,7.5,0,0,0,4.2,0,5.23,5.23,0,0,0,1.5-.7,2.73,2.73,0,0,0,.9-1.2,4.19,4.19,0,0,0,.4-1.5,9.72,9.72,0,0,0,.1-1.8V.8h2v9.8a7,7,0,0,1-1.7,5.1c-1.2,1.1-3,1.6-5.4,1.6s-4.1-.5-5.3-1.6S94.85,13,94.85,10.7Z"/><path class="cls-2" d="M124,17.4h-11.5V.8h1.9V16.1H124Z"/><path class="cls-2" d="M123.85,2.1V.8H138V2.1h-6.1V17.4h-2V2.1Z"/><path class="cls-3" d="M21.95,2.3c-5.7,6.4-.5,14.2,4.9,14.7"/><path class="cls-4" d="M23.15,3.3c-4.6,5.2-.5,11.6,3.9,12"/><path class="cls-3" d="M30.45,16.9a5.16,5.16,0,0,0,3-1.2"/><path class="cls-5" d="M30.25,15.3a3.16,3.16,0,0,0,1.9-.7"/><path class="cls-6" d="M21.15.9l.8-.9a4.33,4.33,0,0,0,2.7,2.4l-.2.4,3.2,2.6a2.76,2.76,0,0,1,2.5.4,2.13,2.13,0,0,1,.3,2.1l5,5.5.1.2-.2.1v1.4l-.7.8h-.1l-2.2-2v-.1l.2-.2c.5-.6.4-.5.4-.5l1.4-.1-4.6-4.2c-.2.1-.4.1-.5.2.2,3.3.5,6.6.7,9.9l2.8,2.8h-1.9l-.7-.9.1.9h-3.1l.1-.9-.7.9h-1.9c.9-.9,1.8-1.9,2.7-2.8.3-3.3.5-6.7.8-10a2.13,2.13,0,0,1-1.2-1.1A2,2,0,0,1,27,6.4Zm7.5,5.6a.65.65,0,0,0-.6.6.6.6,0,1,0,1.2,0A.65.65,0,0,0,28.65,6.5Z"/></svg>