<?xml version="1.0" encoding="utf-8"?>
<!-- Generator: Adobe Illustrator 20.1.0, SVG Export Plug-In . SVG Version: 6.00 Build 0)  -->
<svg version="1.1" id="Dash_Logo" xmlns="http://www.w3.org/2000/svg" xmlns:xlink="http://www.w3.org/1999/xlink" x="0px" y="0px"
	 viewBox="0 0 700 108.2" style="enable-background:new 0 0 700 108.2;" xml:space="preserve">
<style type="text/css">
	.st0{fill:#1E75BB;}
</style>
<title>Artboard 1</title>
<polygon id="H" class="st0" points="661.1,0 647.4,41.7 574.2,41.7 587.9,0 548.9,0 513.4,108.1 552.3,108.1 566,66.4 639.2,66.4 
	625.5,108.1 664.5,108.1 700,0 "/>
<path id="S" class="st0" d="M506.5,49.9c-1.7-2.6-4.1-4.7-6.8-6.1c-3-1.4-6.3-2.1-9.6-2.1h-85.5l4.8-15h112.2L530.5,0H406.1
	c-3.8,0-7.5,0.7-11,2.1c-4,1.4-7.6,3.5-10.8,6.2c-2.8,2.7-6.2,5.5-8.3,8.9c-2.5,3.3-4.6,7-6.1,10.9l-3.4,10.2
	c-0.9,3.6-1.3,7.3-1.4,11c0.6,3.4,1.4,6.8,2.8,8.9c1.7,2.6,4.1,4.7,6.8,6.2c2.9,1.6,6.2,2.5,9.6,2.7h85.5l-4.8,14.4H352.7l-8.8,26.7
	h124.4c3.8,0,7.5-0.7,11-2.1c4-1.4,7.6-3.5,10.8-6.1c2.8-2.7,6.2-5.5,8.3-8.9c2.6-3.3,4.6-7,6.1-10.9l3.4-10.2
	c1.1-3.6,1.6-7.3,1.4-11C508.6,55.4,507.9,52.1,506.5,49.9z"/>
<path id="A" class="st0" d="M353.4,16.5c-0.6-3.4-1.4-6.1-3.3-8.3c-1.4-2.6-3.6-4.8-6.2-6.1c-3-1.4-6.3-2.2-9.6-2.1h-97.7
	c-3.8,0-7.5,0.7-11,2.1c-4,1.4-7.7,3.5-10.9,6.2c-2.8,2.7-6.1,5.5-8.3,8.9c-2.6,3.3-4.6,7-6.1,10.9l-26,80h39L240,26.8h73.8
	l-8.1,23.9h-52l-8.2,25.3h51.9l-10.3,32.2h38.4l26.6-80.8C353.2,23.8,353.6,20.2,353.4,16.5z"/>
<path id="D" class="st0" d="M183.2,17.2c-0.2-3.1-1.1-6.2-2.7-8.9c-1.4-2.8-3.9-5-6.8-6.1c-3-1.5-6.3-2.2-9.6-2.1H39.7l-8.9,26.7
	h112.7l-17.8,54.6H13l-8.9,26.7h125c3.7-0.1,7.4-0.8,10.9-2.1c3.5-2,7.5-4,10.9-6.8c3.3-2.6,6.3-5.6,8.9-8.9c2.2-3.3,4-6.7,5.5-10.3
	l16.5-51.9C183.3,24.7,183.8,20.9,183.2,17.2z"/>
<polygon id="_-" class="st0" points="75.2,41.7 8.9,41.7 0,66.4 67,66.4 "/>
</svg>
