<?xml version="1.0" encoding="utf-8"?>
<!-- Generator: Adobe Illustrator 18.1.0, SVG Export Plug-In . SVG Version: 6.00 Build 0)  -->
<svg version="1.1" id="Layer_1" xmlns="http://www.w3.org/2000/svg" xmlns:xlink="http://www.w3.org/1999/xlink" x="0px" y="0px"
	 viewBox="0 0 421.8 266" enable-background="new 0 0 421.8 266" xml:space="preserve">
<g id="Isotipo">
	<g>
		<path fill="#424242" d="M311.6,32.2c-40-50.2-99.7-26.8-99.7-26.8v43.4c0,0,7.6-6.9,21.2-10.4c13.4-3.5,53.1-4.7,62.3,32.4
			c7.7,31.1-12.3,56.1-36.2,54.3c-22.6-1.7-26.8-18.3-26.8-18.3c-2.3-14.9,12.8-17.3,18.7-12.1c5,4.4,5,9.8,2.9,14.1
			c-1.8,3.6,5.3,1.1,9.7-7.4c4.6-8.8-3.2-15.6-3.2-15.6s-0.6-5-4.7-8.8c-7.2-6.7-16.9-6.8-22.4-5.5c-11.8,2.8-16.8,10.2-19.6,16.5
			c-4.5,10.3-0.5,22.3-0.5,22.3s11.1,39.3,56.7,36.9C324.3,144.4,342.1,70.5,311.6,32.2z"/>
		<g>
			<path fill="#FFFFFF" d="M218.2,90.4c0.3,0.1,0.7-0.1,0.8-0.5c3-8.6,11.2-14.9,20.8-14.9c1.1,0,2.1,0.1,3.1,0.2
				c0.4,0.1,0.7-0.2,0.8-0.6l0,0c0-0.4-0.2-0.7-0.6-0.8c-1.1-0.2-2.2-0.2-3.3-0.2c-10.3,0-19,6.6-22.2,15.8
				C217.5,89.9,217.8,90.3,218.2,90.4L218.2,90.4z"/>
			<path fill="#FFFFFF" d="M224.4,85.8c2.8-3.9,7-6.7,11.9-7.7c0.3-0.1,0.5-0.3,0.5-0.6v0c0-0.4-0.4-0.7-0.8-0.6
				c-5.2,1-9.7,4.1-12.7,8.2c-0.2,0.3-0.1,0.7,0.2,0.9l0,0C223.9,86.1,224.2,86.1,224.4,85.8z"/>
		</g>
		<path fill="#CE002C" d="M112.2,32.2c40-50.2,99.7-26.8,99.7-26.8v43.4c0,0-7.6-6.9-21.2-10.4c-13.4-3.5-53.1-4.7-62.3,32.4
			c-7.7,31.1,12.3,56.1,36.2,54.3c22.6-1.7,26.8-18.3,26.8-18.3c2.3-14.9-12.8-17.3-18.7-12.1c-5,4.4-5,9.8-2.9,14.1
			c1.8,3.6-5.3,1.1-9.7-7.4c-4.6-8.8,3.2-15.6,3.2-15.6s0.6-5,4.7-8.8c7.2-6.7,16.9-6.8,22.4-5.5c11.8,2.8,16.8,10.2,19.6,16.5
			c4.5,10.3,0.5,22.3,0.5,22.3s-11.1,39.3-56.7,36.9C99.5,144.4,81.8,70.5,112.2,32.2z"/>
		<g>
			<path fill="#FFFFFF" d="M205.6,90.4c-0.3,0.1-0.7-0.1-0.8-0.5c-3-8.6-11.2-14.9-20.8-14.9c-1.1,0-2.1,0.1-3.1,0.2
				c-0.4,0.1-0.7-0.2-0.8-0.6l0,0c0-0.4,0.2-0.7,0.6-0.8c1.1-0.2,2.2-0.2,3.3-0.2c10.3,0,19,6.6,22.2,15.8
				C206.3,89.9,206.1,90.3,205.6,90.4L205.6,90.4z"/>
			<path fill="#FFFFFF" d="M199.5,85.8c-2.8-3.9-7-6.7-11.9-7.7c-0.3-0.1-0.5-0.3-0.5-0.6v0c0-0.4,0.4-0.7,0.8-0.6
				c5.2,1,9.7,4.1,12.7,8.2c0.2,0.3,0.1,0.7-0.2,0.9l0,0C200,86.1,199.6,86.1,199.5,85.8z"/>
		</g>
	</g>
	<g>
		<path fill="#424242" d="M20.2,175.6H0V161h58.1v14.6H37.9v66.7H20.2V175.6z"/>
		<path fill="#424242" d="M69.5,149.2c5.9,0,10.3,4.4,10.3,10.4c0,5.5-4.4,9.9-10.3,9.9c-5.6,0-10-4.4-10-9.9
			C59.5,153.7,63.9,149.2,69.5,149.2z M61,176.7h17.5v65.5H61V176.7z"/>
		<path fill="#424242" d="M141.7,239.4c0,17.9-12.5,26.7-30,26.7c-16.1,0-22.6-4.5-26.3-8.9l9.9-12.9c3.2,4.5,9.6,7.7,16.5,7.7
			c9,0,12.9-3.4,12.9-12.6v-3.4h-0.5c-2.4,2.2-7,3.7-12.9,3.7c-13.6,0-25.7-6.7-25.7-30.3c0-18.4,10.4-33.4,31.9-33.4
			c11.5,0,18.6,1.4,24.4,3.9V239.4z M117.2,189.7c-9.2,0-14.4,6.4-14.4,18.9c0,13.5,4.6,16.8,12.4,16.8c3.8,0,7-1.2,9.2-3.4v-31.2
			C122,190.1,120,189.7,117.2,189.7z"/>
		<path fill="#424242" d="M148.2,209.8c0-20.2,8.5-34.2,30.2-34.2c22.6,0,29.7,13.5,29.7,33.7c0,20.2-8.6,34.2-30.3,34.2
			C155.3,243.5,148.2,230.1,148.2,209.8z M178.3,229.8c8.9,0,11.7-6.5,11.7-19.8c0-13.6-3.4-20.8-12.4-20.8c-8,0-11.5,6.5-11.5,19.8
			C166.2,222.7,169.5,229.8,178.3,229.8z"/>
		<path fill="#CE002C" d="M273.2,178.8c-2.8-2.3-6-4.1-9.5-5.4c-3.5-1.3-7.2-1.9-11.1-1.9c-2.9,0-5.7,0.4-8.4,1.1
			c-2.7,0.8-5.2,1.8-7.5,3.2c-2.3,1.4-4.4,3-6.3,5c-1.9,1.9-3.6,4.1-4.9,6.4c-1.4,2.4-2.4,4.9-3.2,7.6s-1.1,5.5-1.1,8.4
			c0,2.9,0.4,5.7,1.1,8.4s1.8,5.2,3.2,7.6c1.4,2.4,3,4.5,4.9,6.4s4,3.6,6.3,5c2.3,1.4,4.8,2.5,7.5,3.2c2.7,0.8,5.5,1.1,8.4,1.1
			c4,0,7.8-0.7,11.4-2.1c3.6-1.4,6.8-3.3,9.7-5.7c0.6-0.5,1.1-0.9,1.6-1.2c0.5-0.3,0.9-0.4,1.4-0.4c0.4,0,0.9,0.1,1.3,0.4
			c0.4,0.3,0.9,0.7,1.5,1.2c0.6,0.6,1,1.1,1.3,1.6c0.3,0.5,0.4,0.9,0.4,1.4c0,0.8-0.6,1.8-1.7,2.8c-1.8,1.6-3.7,3-5.8,4.3
			c-2.1,1.3-4.2,2.3-6.5,3.2c-2.3,0.9-4.6,1.6-7.1,2c-2.5,0.5-5,0.7-7.5,0.7c-3.7,0-7.3-0.5-10.7-1.4c-3.4-1-6.6-2.3-9.6-4
			c-3-1.7-5.7-3.8-8.1-6.3c-2.4-2.4-4.5-5.2-6.3-8.1c-1.7-3-3.1-6.2-4.1-9.6s-1.4-7-1.4-10.6s0.5-7.2,1.4-10.6s2.3-6.6,4.1-9.6
			c1.7-3,3.8-5.7,6.3-8.1c2.4-2.4,5.2-4.5,8.1-6.3s6.2-3.1,9.6-4s7-1.4,10.7-1.4c2.6,0,5.1,0.2,7.5,0.7c2.4,0.5,4.8,1.1,7.1,2
			c2.3,0.9,4.4,1.9,6.5,3.2s4,2.7,5.8,4.3c1.1,1,1.7,1.9,1.7,2.7c0,0.5-0.2,0.9-0.5,1.4c-0.3,0.4-0.8,0.9-1.4,1.5
			c-0.6,0.5-1.1,0.9-1.6,1.1c-0.5,0.2-0.9,0.4-1.3,0.4c-0.5,0-0.9-0.1-1.4-0.4C274.5,179.7,273.9,179.3,273.2,178.8z"/>
		<path fill="#CE002C" d="M309.3,172.2h-15.5c-0.8,0-1.4-0.1-1.9-0.2c-0.5-0.1-0.9-0.3-1.2-0.6c-0.3-0.3-0.5-0.7-0.6-1.2
			c-0.1-0.5-0.2-1.1-0.2-1.9c0-0.8,0.1-1.4,0.2-1.9c0.1-0.5,0.3-0.9,0.6-1.2c0.3-0.3,0.7-0.5,1.2-0.6c0.5-0.1,1.1-0.2,1.9-0.2h39.8
			c0.8,0,1.4,0.1,1.9,0.2c0.5,0.1,0.9,0.3,1.2,0.6c0.3,0.3,0.5,0.7,0.6,1.2c0.1,0.5,0.2,1.1,0.2,1.9c0,0.8-0.1,1.4-0.2,1.9
			c-0.1,0.5-0.3,0.9-0.6,1.2c-0.3,0.3-0.7,0.5-1.2,0.6c-0.5,0.1-1.1,0.2-1.9,0.2h-15.5v65.6c0,0.9-0.1,1.6-0.2,2.1s-0.4,1-0.7,1.3
			c-0.3,0.3-0.8,0.6-1.3,0.7c-0.6,0.1-1.3,0.2-2.1,0.2c-0.9,0-1.6-0.1-2.1-0.2c-0.6-0.1-1-0.4-1.3-0.7c-0.3-0.3-0.6-0.8-0.7-1.3
			s-0.2-1.3-0.2-2.1V172.2z"/>
		<path fill="#CE002C" d="M354.6,165.3c0.2-1,0.5-1.6,0.9-1.6c0.3,0,0.7,0.5,1.1,1.4l22.9,58l23-58c0.4-1,0.8-1.4,1.1-1.4
			c0.3,0,0.6,0.5,0.9,1.6l17.1,72.5c0.2,0.7,0.2,1.3,0.2,1.9c0,0.9-0.3,1.6-0.9,2c-0.6,0.4-1.5,0.6-2.9,0.6c-0.9,0-1.7-0.1-2.3-0.2
			c-0.6-0.1-1.1-0.4-1.5-0.7c-0.4-0.3-0.8-0.8-1-1.3c-0.3-0.6-0.5-1.3-0.7-2.2l-11.3-48.6l-20.5,52.2c-0.4,1-0.8,1.5-1.2,1.5
			c-0.4,0-0.8-0.5-1.2-1.5l-20.5-52.2l-11.3,48.6c-0.2,0.9-0.4,1.6-0.7,2.2c-0.3,0.6-0.6,1-1,1.3c-0.4,0.3-0.9,0.6-1.5,0.7
			c-0.6,0.1-1.4,0.2-2.3,0.2c-1.3,0-2.3-0.2-2.8-0.6s-0.9-1-0.9-1.9c0-0.6,0.1-1.2,0.2-1.9L354.6,165.3z"/>
	</g>
</g>
</svg>
