<svg id="Layer_1" data-name="Layer 1" xmlns="http://www.w3.org/2000/svg" viewBox="0 0 421.8 116.9"><defs><style>.cls-1{fill:#424242;}.cls-2{fill:#ce002c;}</style></defs><title>tigoctm-alt</title><g id="Isotipo"><path class="cls-1" d="M20.2,26.4H0V11.8H58.1V26.4H37.9V93.1H20.2Z"/><path class="cls-1" d="M69.5,0A10.07,10.07,0,0,1,79.8,10.4a10.15,10.15,0,0,1-20.3,0A10.06,10.06,0,0,1,69.5,0ZM61,27.5H78.5V93H61Z"/><path class="cls-1" d="M141.7,90.2c0,17.9-12.5,26.7-30,26.7-16.1,0-22.6-4.5-26.3-8.9l9.9-12.9c3.2,4.5,9.6,7.7,16.5,7.7,9,0,12.9-3.4,12.9-12.6V86.8h-.5c-2.4,2.2-7,3.7-12.9,3.7-13.6,0-25.7-6.7-25.7-30.3,0-18.4,10.4-33.4,31.9-33.4,11.5,0,18.6,1.4,24.4,3.9V90.2ZM117.2,40.5c-9.2,0-14.4,6.4-14.4,18.9,0,13.5,4.6,16.8,12.4,16.8a12.7,12.7,0,0,0,9.2-3.4V41.6A23.62,23.62,0,0,0,117.2,40.5Z"/><path class="cls-1" d="M148.2,60.6c0-20.2,8.5-34.2,30.2-34.2,22.6,0,29.7,13.5,29.7,33.7s-8.6,34.2-30.3,34.2C155.3,94.3,148.2,80.9,148.2,60.6Zm30.1,20c8.9,0,11.7-6.5,11.7-19.8,0-13.6-3.4-20.8-12.4-20.8-8,0-11.5,6.5-11.5,19.8C166.2,73.5,169.5,80.6,178.3,80.6Z"/><path class="cls-2" d="M273.2,29.6a33,33,0,0,0-9.5-5.4,31.59,31.59,0,0,0-11.1-1.9,33.36,33.36,0,0,0-8.4,1.1,31.4,31.4,0,0,0-7.5,3.2A32.75,32.75,0,0,0,225.5,38a34,34,0,0,0-3.2,7.6,29.35,29.35,0,0,0-1.1,8.4,33.36,33.36,0,0,0,1.1,8.4,29.91,29.91,0,0,0,3.2,7.6,31,31,0,0,0,4.9,6.4,33.8,33.8,0,0,0,6.3,5,27.82,27.82,0,0,0,7.5,3.2,29.35,29.35,0,0,0,8.4,1.1A31.17,31.17,0,0,0,264,83.6a34.9,34.9,0,0,0,9.7-5.7,13.28,13.28,0,0,1,1.6-1.2,2.5,2.5,0,0,1,1.4-.4,2.2,2.2,0,0,1,1.3.4q.6.45,1.5,1.2a8.3,8.3,0,0,1,1.3,1.6,2.5,2.5,0,0,1,.4,1.4,4.32,4.32,0,0,1-1.7,2.8,41.48,41.48,0,0,1-5.8,4.3,39.21,39.21,0,0,1-6.5,3.2,34,34,0,0,1-7.1,2,38.08,38.08,0,0,1-7.5.7,41.85,41.85,0,0,1-10.7-1.4,45.21,45.21,0,0,1-9.6-4,35.29,35.29,0,0,1-8.1-6.3,45.11,45.11,0,0,1-6.3-8.1,45.5,45.5,0,0,1-4.1-9.6,37.64,37.64,0,0,1-1.4-10.6,41.66,41.66,0,0,1,1.4-10.6,37.07,37.07,0,0,1,4.1-9.6,35.29,35.29,0,0,1,6.3-8.1,45.11,45.11,0,0,1,8.1-6.3,35.43,35.43,0,0,1,9.6-4,41.85,41.85,0,0,1,10.7-1.4,36.71,36.71,0,0,1,7.5.7,44.09,44.09,0,0,1,7.1,2,39.21,39.21,0,0,1,6.5,3.2,41.48,41.48,0,0,1,5.8,4.3c1.1,1,1.7,1.9,1.7,2.7a2.65,2.65,0,0,1-.5,1.4,16.67,16.67,0,0,1-1.4,1.5,6.57,6.57,0,0,1-1.6,1.1,3.82,3.82,0,0,1-1.3.4,2.5,2.5,0,0,1-1.4-.4Q274.25,30.35,273.2,29.6Z"/><path class="cls-2" d="M309.3,23H293.8a9.2,9.2,0,0,1-1.9-.2,2.12,2.12,0,0,1-1.8-1.8,9.12,9.12,0,0,1,0-3.8,2.12,2.12,0,0,1,1.8-1.8,9.2,9.2,0,0,1,1.9-.2h39.8a9.2,9.2,0,0,1,1.9.2,2.12,2.12,0,0,1,1.8,1.8,9.12,9.12,0,0,1,0,3.8,2.12,2.12,0,0,1-1.8,1.8,9.2,9.2,0,0,1-1.9.2H318.1V88.6a10.61,10.61,0,0,1-.2,2.1,2.57,2.57,0,0,1-2,2,12.48,12.48,0,0,1-2.1.2,10.61,10.61,0,0,1-2.1-.2,2.33,2.33,0,0,1-1.3-.7,2.73,2.73,0,0,1-.7-1.3,11.49,11.49,0,0,1-.2-2.1V23Z"/><path class="cls-2" d="M354.6,16.1c.2-1,.5-1.6.9-1.6s.7.5,1.1,1.4l22.9,58,23-58c.4-1,.8-1.4,1.1-1.4s.6.5.9,1.6l17.1,72.5a6.48,6.48,0,0,1,.2,1.9,2.26,2.26,0,0,1-.9,2,5.22,5.22,0,0,1-2.9.6,14,14,0,0,1-2.3-.2,3.48,3.48,0,0,1-1.5-.7,3.25,3.25,0,0,1-1-1.3,9.51,9.51,0,0,1-.7-2.2L401.2,40.1,380.7,92.3q-.6,1.5-1.2,1.5t-1.2-1.5L357.8,40.1,346.5,88.7a9.51,9.51,0,0,1-.7,2.2,3.48,3.48,0,0,1-2.5,2,14,14,0,0,1-2.3.2,4.84,4.84,0,0,1-2.8-.6,2.32,2.32,0,0,1-.9-1.9,13.66,13.66,0,0,1,.2-1.9Z"/></g></svg>