<svg xmlns="http://www.w3.org/2000/svg" viewBox="0 0 100 20.91"><defs><style>.cls-1{fill:#292561;}</style></defs><title>Artboard 1</title><g id="Design"><path class="cls-1" d="M4.42,4.18l1-.82a1.14,1.14,0,0,1,.53.39,1.1,1.1,0,0,1,.17.64V7.67a.36.36,0,0,0,0,.2,1.32,1.32,0,0,0,.31.29l.43-.35L7,7.95,6,8.79,5,8.16l.26-.35V4.88a1.45,1.45,0,0,0,0-.41.67.67,0,0,0-.19-.3.27.27,0,0,0-.16-.07.4.4,0,0,0-.22.11l-.14.11Z"/><path class="cls-1" d="M10.17,10.23a2.79,2.79,0,0,1,1.38,1,2.6,2.6,0,0,1,.49,1.58,3,3,0,0,1-.46,1.63,4,4,0,0,1-1.24,1.24,2.54,2.54,0,0,1-1-.5,2.4,2.4,0,0,1-.7-.92,2.8,2.8,0,0,1-.24-1.14,3.13,3.13,0,0,1,.49-1.65A3.23,3.23,0,0,1,10.17,10.23ZM9.49,11a2.16,2.16,0,0,0-.54,1.48,2.6,2.6,0,0,0,.26,1.15,2.36,2.36,0,0,0,.75.89,2.26,2.26,0,0,0,1,.43,2.91,2.91,0,0,0,.4-.73,2.23,2.23,0,0,0,.12-.75,2.6,2.6,0,0,0-.23-1.08,2.24,2.24,0,0,0-.69-.87A3.21,3.21,0,0,0,9.49,11Z"/><path class="cls-1" d="M.87,3.33h0A1.12,1.12,0,1,0,.39,2.8C.31,3.25-2.2,18.6,6.6,20.48l.11-.56S-1.16,19.25.87,3.33Zm.55-1.58a.6.6,0,1,1-.6.6A.6.6,0,0,1,1.41,1.75Z"/><polygon class="cls-1" points="8.16 0.54 13.75 1.39 13.84 0.82 8.16 0 2.49 0.82 2.57 1.39 8.16 0.54"/><path class="cls-1" d="M15.94,2.8a1.12,1.12,0,1,0-.48.53h0c2,15.92-5.85,16.59-5.85,16.59l.11.56C18.52,18.6,16,3.25,15.94,2.8Zm-1-1.05a.6.6,0,1,1-.6.6A.6.6,0,0,1,14.91,1.75Z"/><path class="cls-1" d="M15,11.58l-.55,0C13.79,18.43,9,19,9,19a1.12,1.12,0,0,0-1.59,0s-4.83-.57-5.46-7.44l-.55,0s.24,6.74,5.72,7.93a1.12,1.12,0,1,0,2.17,0C14.72,18.31,15,11.58,15,11.58Zm-6.2,8.21a.6.6,0,1,1-.6-.6A.6.6,0,0,1,8.77,19.79Z"/><path class="cls-1" d="M15,4.07c-1.54-.38-1.91-1.25-2-1.77l-.43.61h0l-8.71,12a8.72,8.72,0,0,1-.81-4.32H1.81a37.51,37.51,0,0,1,0-6.08s1.89-.57,2-2.15l4.32-.71L11,2.11l.11-.56-3-.5h0L3.3,1.87s.29,1.63-2,2.2a34.72,34.72,0,0,0,0,7.1H2.51A7.8,7.8,0,0,0,4,16.1l.34-.48h0L13,3.62a3.6,3.6,0,0,0,1.43.89,37.51,37.51,0,0,1,0,6.08H13.23c.15,4.32-1.89,5.73-1.89,5.73l.31.47c2.41-1.95,2.17-5.61,2.17-5.61H15A34.72,34.72,0,0,0,15,4.07Z"/><path class="cls-1" d="M28.25,10.79h5.84V18a13.1,13.1,0,0,1-5.17,1,7.52,7.52,0,0,1-5.75-2.12,8.4,8.4,0,0,1-2-6,9,9,0,0,1,1-4.28A6.94,6.94,0,0,1,25,3.71a8.64,8.64,0,0,1,4.24-1,10.93,10.93,0,0,1,4.65,1l-.44,1a10,10,0,0,0-4.27-1,6.52,6.52,0,0,0-5,1.93,7.26,7.26,0,0,0-1.84,5.22,7.45,7.45,0,0,0,1.74,5.38A6.81,6.81,0,0,0,29.25,18,9.92,9.92,0,0,0,33,17.4V11.83H28.25Z"/><path class="cls-1" d="M37.13,3.73q0-1,.68-1a.61.61,0,0,1,.53.27,1.33,1.33,0,0,1,.19.77,1.36,1.36,0,0,1-.19.77.6.6,0,0,1-.53.28Q37.13,4.78,37.13,3.73Zm1.22,15H37.28V7h1.07Z"/><path class="cls-1" d="M45.58,18a8,8,0,0,0,1.78-.17v.87a5.68,5.68,0,0,1-1.8.26,2.93,2.93,0,0,1-2.3-.83,3.87,3.87,0,0,1-.74-2.62V7.93H40.77V7.3l1.74-.49.54-2.66h.55V7h3.46v.93H43.61v7.45a3.4,3.4,0,0,0,.48,2A1.73,1.73,0,0,0,45.58,18Z"/><path class="cls-1" d="M60.31,10.79h5.84V18A13.1,13.1,0,0,1,61,19a7.52,7.52,0,0,1-5.75-2.12,8.4,8.4,0,0,1-2-6,9,9,0,0,1,1-4.28,6.94,6.94,0,0,1,2.84-2.89,8.64,8.64,0,0,1,4.24-1,10.93,10.93,0,0,1,4.65,1l-.44,1a10,10,0,0,0-4.27-1,6.52,6.52,0,0,0-5,1.93,7.26,7.26,0,0,0-1.84,5.22,7.45,7.45,0,0,0,1.74,5.38A6.81,6.81,0,0,0,61.31,18,9.92,9.92,0,0,0,65,17.4V11.83H60.31Z"/><path class="cls-1" d="M70.3,7v7.63A3.72,3.72,0,0,0,71,17.21a3,3,0,0,0,2.32.81A4,4,0,0,0,76.46,17a5,5,0,0,0,1-3.46V7h1.06V18.77H77.6l-.19-1.62h-.06Q76.19,19,73.26,19q-4,0-4-4.3V7Z"/><path class="cls-1" d="M81.68,3.73q0-1,.68-1a.61.61,0,0,1,.53.27,1.33,1.33,0,0,1,.19.77,1.36,1.36,0,0,1-.19.77.6.6,0,0,1-.53.28Q81.68,4.78,81.68,3.73Zm1.22,15H81.83V7H82.9Z"/><path class="cls-1" d="M87.3,18.77H86.22V1.92H87.3Z"/><path class="cls-1" d="M95.06,6.77a4.89,4.89,0,0,1,2.21.47,4.4,4.4,0,0,1,1.67,1.59H99q-.06-1.36-.06-2.68V1.92H100V18.77h-.7L99,17h-.09a4.36,4.36,0,0,1-3.86,2,4.62,4.62,0,0,1-3.73-1.52,6.65,6.65,0,0,1-1.29-4.42,7.38,7.38,0,0,1,1.28-4.67A4.46,4.46,0,0,1,95.06,6.77Zm0,1a3.33,3.33,0,0,0-2.9,1.35,6.71,6.71,0,0,0-1,3.93q0,5,3.89,5A3.53,3.53,0,0,0,98,16.88a6.15,6.15,0,0,0,.93-3.82v-.18A6.55,6.55,0,0,0,98,8.95,3.49,3.49,0,0,0,95.06,7.75Z"/></g></svg>