<svg xmlns="http://www.w3.org/2000/svg" viewBox="0 0 200 255"><defs><style>.cls-1{fill:#292561;}</style></defs><title>Artboard 1</title><g id="Design"><path class="cls-1" d="M54.14,51l12-10a14,14,0,0,1,6.48,4.78,13.36,13.36,0,0,1,2.1,7.79v40a4.32,4.32,0,0,0,.58,2.49,16.18,16.18,0,0,0,3.75,3.49l5.24-4.26,1.54,1.63L73.14,107.16l-11.65-7.6,3.22-4.26V59.49a17.59,17.59,0,0,0-.48-5,8.11,8.11,0,0,0-2.31-3.63A3.26,3.26,0,0,0,60,49.93a4.89,4.89,0,0,0-2.65,1.39q-1,.81-1.73,1.34Z"/><path class="cls-1" d="M124.62,124.77q10.91,3.73,17,11.93A31.59,31.59,0,0,1,147.64,156,36.38,36.38,0,0,1,142,175.81a49.32,49.32,0,0,1-15.25,15.13,31.12,31.12,0,0,1-12.5-6.11,29.31,29.31,0,0,1-8.58-11.19,34,34,0,0,1-3-13.92,38.07,38.07,0,0,1,6-20.09A39.47,39.47,0,0,1,124.62,124.77Zm-8.31,8.8a26.27,26.27,0,0,0-6.67,18.07,31.62,31.62,0,0,0,3.22,14.06,28.77,28.77,0,0,0,9.2,10.9,27.73,27.73,0,0,0,12.23,5.21,35.42,35.42,0,0,0,5-8.87,27.11,27.11,0,0,0,1.48-9.16,31.61,31.61,0,0,0-2.81-13.12,27.38,27.38,0,0,0-8.43-10.57A39.44,39.44,0,0,0,116.31,133.57Z"/><path class="cls-1" d="M10.61,40.64h0a13.66,13.66,0,1,0-7-11.92,13.56,13.56,0,0,0,1.15,5.47C3.82,39.63-26.91,226.85,80.9,249.73l1.38-6.82S-14.19,234.74,10.61,40.64Zm6.72-19.29a7.36,7.36,0,1,1-7.39,7.36A7.38,7.38,0,0,1,17.33,21.35Z"/><polygon class="cls-1" points="99.98 6.58 168.47 16.9 169.51 10 99.98 0 30.49 10 31.52 16.9 99.98 6.58"/><path class="cls-1" d="M195.26,34.18a13.56,13.56,0,0,0,1.15-5.47,13.74,13.74,0,1,0-7,11.92h0c24.8,194.11-71.66,202.27-71.66,202.27l1.38,6.82C226.91,226.85,196.18,39.63,195.26,34.18ZM182.67,21.35a7.36,7.36,0,1,1-7.39,7.36A7.38,7.38,0,0,1,182.67,21.35Z"/><path class="cls-1" d="M183.35,141.16l-6.71-.2c-7.74,83.82-66.31,90.66-66.9,90.73a13.78,13.78,0,0,0-19.48,0c-.59-.07-59.16-6.91-66.9-90.73l-6.71.2s3,82.16,70.08,96.68a13.74,13.74,0,1,0,26.55,0C180.37,223.32,183.35,141.16,183.35,141.16ZM107.41,241.32A7.39,7.39,0,1,1,100,234,7.38,7.38,0,0,1,107.41,241.32Z"/><path class="cls-1" d="M183.93,49.64C165.06,45,160.54,34.44,159.6,28l-5.21,7.48.06.14L47.78,181.9c-5.64-11-10.74-27.89-9.89-52.72l-15.71,0s-3.43-47.94.5-74.19c0,0,23.11-6.9,24.4-26.26L100,20l35,5.76L136.3,19l-36.29-6h0L40.47,22.84s3.6,19.93-24.4,26.8c0,0-5.53,47.9-.44,86.6H30.8s-2.4,35.6,18.09,60.14l4.19-5.85,0,0L159.83,44.1C167.06,51.89,177.32,55,177.32,55c3.93,26.26.5,74.19.5,74.19l-15.71,0c1.81,52.64-23.19,69.83-23.19,69.83l3.76,5.68c29.56-23.74,26.53-68.44,26.53-68.44h15.17C189.46,97.54,183.93,49.64,183.93,49.64Z"/></g></svg>